<svg width="24" height="21" viewBox="0 0 24 21" fill="none" xmlns="http://www.w3.org/2000/svg">
<g clip-path="url(#clip0_251_32)">
<path d="M19.9658 13.1238L12.3711 0.21134C12.3344 0.14758 12.2811 0.0944688 12.2167 0.057365C12.1524 0.020261 12.0792 0.000476664 12.0045 8.50611e-06C11.9299 -0.000459652 11.8565 0.0184047 11.7916 0.0546983C11.7268 0.0909917 11.6729 0.143431 11.6353 0.206724L9.36076 4.07583C9.28626 4.20248 9.24707 4.34614 9.24707 4.4924C9.24707 4.63864 9.28626 4.78231 9.36076 4.90898L14.313 13.3326C14.3875 13.4594 14.4948 13.5646 14.624 13.6378C14.7532 13.7109 14.8997 13.7493 15.0488 13.7492H19.5978C19.6723 13.749 19.7454 13.7296 19.8099 13.6929C19.8743 13.6563 19.9278 13.6037 19.9651 13.5404C20.0023 13.477 20.022 13.4053 20.0221 13.3321C20.0222 13.259 20.0028 13.1872 19.9658 13.1238Z" fill="url(#paint0_linear_251_32)"/>
<path d="M0.0585626 19.8724L7.65319 6.95998C7.69048 6.89672 7.74405 6.84419 7.80852 6.80769C7.87298 6.77117 7.9461 6.75195 8.02052 6.75195C8.09495 6.75195 8.1681 6.77117 8.23257 6.80769C8.29705 6.84419 8.3506 6.89672 8.38786 6.95998L10.6636 10.8256C10.738 10.9525 10.7772 11.0963 10.7772 11.2428C10.7772 11.3892 10.738 11.533 10.6636 11.6599L5.71133 20.0835C5.63707 20.2103 5.53002 20.3156 5.40102 20.3887C5.27202 20.4619 5.12564 20.5003 4.97667 20.5001H0.426481C0.351524 20.5005 0.27781 20.4814 0.212827 20.4447C0.147845 20.408 0.0939217 20.3551 0.0565393 20.2913C0.019157 20.2275 -0.000351926 20.1552 4.80589e-06 20.0816C0.000361538 20.008 0.0205634 19.9358 0.0585626 19.8724Z" fill="url(#paint1_linear_251_32)"/>
<path d="M8.38682 20.4969H23.5761C23.6506 20.4968 23.7238 20.4775 23.7883 20.4408C23.8527 20.4042 23.9062 20.3515 23.9434 20.2881C23.9805 20.2247 24 20.1528 24 20.0797C24 20.0066 23.9803 19.9347 23.9429 19.8714L21.6707 16.0035C21.5961 15.8767 21.4888 15.7715 21.3597 15.6983C21.2305 15.6252 21.084 15.5868 20.9348 15.5869H11.0304C10.8813 15.5868 10.7348 15.6252 10.6056 15.6983C10.4764 15.7715 10.3691 15.8767 10.2946 16.0035L8.02008 19.8714C7.98272 19.9347 7.96299 20.0066 7.96289 20.0797C7.96277 20.1528 7.98227 20.2247 8.01944 20.2881C8.05663 20.3515 8.11015 20.4042 8.17465 20.4408C8.23913 20.4775 8.3123 20.4968 8.38682 20.4969Z" fill="url(#paint2_linear_251_32)"/>
</g>
<defs>
<linearGradient id="paint0_linear_251_32" x1="11.9996" y1="1.52381" x2="9.88164" y2="20.5015" gradientUnits="userSpaceOnUse">
<stop stop-color="#05D5FF"/>
<stop offset="0.723958" stop-color="#363FF9"/>
<stop offset="1" stop-color="#5533FF"/>
</linearGradient>
<linearGradient id="paint1_linear_251_32" x1="12" y1="1.52393" x2="9.882" y2="20.5016" gradientUnits="userSpaceOnUse">
<stop stop-color="#05D5FF"/>
<stop offset="0.723958" stop-color="#363FF9"/>
<stop offset="1" stop-color="#5533FF"/>
</linearGradient>
<linearGradient id="paint2_linear_251_32" x1="12" y1="1.52344" x2="9.88204" y2="20.5011" gradientUnits="userSpaceOnUse">
<stop stop-color="#05D5FF"/>
<stop offset="0.723958" stop-color="#363FF9"/>
<stop offset="1" stop-color="#5533FF"/>
</linearGradient>
<clipPath id="clip0_251_32">
<rect width="24" height="20.5" fill="white"/>
</clipPath>
</defs>
</svg>
