<svg width="24" height="24" viewBox="0 0 24 24" fill="none" xmlns="http://www.w3.org/2000/svg">
<g clip-path="url(#clip0_249_4338)">
<path d="M12 24C18.6274 24 24 18.6274 24 12C24 5.37258 18.6274 0 12 0C5.37258 0 0 5.37258 0 12C0 18.6274 5.37258 24 12 24Z" fill="url(#paint0_radial_249_4338)"/>
<path fill-rule="evenodd" clip-rule="evenodd" d="M13.1131 19.57C13.4801 17.9686 13.7353 15.7264 13.797 13.1914L14.3593 13.2051C14.2971 15.7645 14.0394 18.0465 13.6614 19.6957C13.473 20.518 13.2513 21.198 13.0008 21.6791C12.8757 21.9192 12.7364 22.1238 12.579 22.2717C12.4206 22.4206 12.2259 22.5278 12.0001 22.5278C11.7409 22.5278 11.5239 22.3873 11.3526 22.2025C11.1807 22.0169 11.028 21.7593 10.8907 21.4539C10.6154 20.8413 10.3755 19.9747 10.1807 18.9313L10.7336 18.8281C10.9249 19.8528 11.1549 20.6696 11.4038 21.2234C11.5286 21.5012 11.6516 21.6975 11.7652 21.8202C11.8794 21.9434 11.9578 21.9653 12.0001 21.9653C12.0373 21.9653 12.101 21.949 12.1938 21.8618C12.2877 21.7735 12.3924 21.6294 12.5018 21.4193C12.7203 20.9998 12.9291 20.373 13.1131 19.57Z" fill="url(#paint1_linear_249_4338)"/>
<path fill-rule="evenodd" clip-rule="evenodd" d="M11.0635 3.7404C10.7269 4.91755 10.4595 6.59384 10.3129 8.5622L9.75195 8.52041C9.90013 6.53131 10.1716 4.81344 10.5226 3.58576C10.6976 2.97402 10.8967 2.468 11.1198 2.10873C11.3319 1.76703 11.6209 1.47168 12.0004 1.47168C12.2262 1.47168 12.4209 1.57892 12.5793 1.72784C12.7366 1.87572 12.876 2.08028 13.001 2.32043C13.2515 2.80152 13.4732 3.48153 13.6617 4.30384C14.0397 5.95299 14.2974 8.23498 14.3596 10.7944L13.7972 10.8081C13.7356 8.27307 13.4804 6.0309 13.1134 4.42951C12.9294 3.62654 12.7205 2.99968 12.5021 2.58022C12.3927 2.37008 12.2879 2.22595 12.194 2.13771C12.1013 2.0505 12.0376 2.03418 12.0004 2.03418C11.9346 2.03418 11.7919 2.0927 11.5976 2.40547C11.4143 2.70066 11.2324 3.14973 11.0635 3.7404Z" fill="url(#paint2_linear_249_4338)"/>
<path fill-rule="evenodd" clip-rule="evenodd" d="M10.3123 8.5623C10.2324 9.63552 10.1885 10.7929 10.1885 11.9999C10.1885 14.6349 10.3976 17.0305 10.7333 18.8283L10.1803 18.9315C9.83684 17.0922 9.62598 14.6609 9.62598 11.9999C9.62598 10.7795 9.67032 9.60815 9.75134 8.52051L10.3123 8.5623Z" fill="url(#paint3_linear_249_4338)"/>
<path fill-rule="evenodd" clip-rule="evenodd" d="M10.0501 12.9555C8.22545 11.8416 6.64902 10.712 5.47823 9.71387L5.11328 10.1419C6.3115 11.1635 7.91317 12.31 9.75705 13.4356L10.0501 12.9555Z" fill="url(#paint4_linear_249_4338)"/>
<path fill-rule="evenodd" clip-rule="evenodd" d="M17.9883 16.7487C16.4181 16.2659 14.3489 15.366 12.1228 14.152L11.8535 14.6458C14.101 15.8715 16.2059 16.7892 17.823 17.2864C18.6293 17.5343 19.329 17.6823 19.8709 17.7059C20.1413 17.7176 20.3881 17.6992 20.5948 17.6369C20.803 17.5742 20.9932 17.4592 21.1061 17.2636C21.2966 16.9337 21.1837 16.5339 20.9921 16.1777C20.7906 15.803 20.449 15.3752 20.0029 14.9152C19.1076 13.9921 17.7448 12.8918 16.0841 11.7637L15.768 12.229C17.4114 13.3454 18.7403 14.4213 19.599 15.3068C20.0299 15.7511 20.3309 16.1357 20.4967 16.4442C20.6726 16.7711 20.652 16.9251 20.619 16.9824C20.6004 17.0146 20.5544 17.0616 20.4325 17.0984C20.3091 17.1355 20.132 17.1542 19.8953 17.1439C19.4229 17.1233 18.7756 16.9908 17.9883 16.7487Z" fill="url(#paint5_linear_249_4338)"/>
<path fill-rule="evenodd" clip-rule="evenodd" d="M12.8936 10.4311C13.9228 11.0252 14.8891 11.6322 15.7675 12.2291L16.0836 11.7638C15.1934 11.159 14.2155 10.5447 13.1749 9.94392C10.7127 8.52241 8.3567 7.44011 6.53741 6.83575C5.62996 6.53432 4.84206 6.34701 4.23507 6.30115C3.93233 6.27827 3.65832 6.28917 3.43091 6.34849C3.20307 6.40793 2.99211 6.52474 2.87038 6.73561C2.73976 6.96185 2.75411 7.22222 2.83016 7.46475C2.90652 7.70831 3.05579 7.97177 3.25489 8.24601C3.65439 8.79623 4.29475 9.44414 5.11283 10.1416L5.47775 9.71355C4.67406 9.02836 4.07181 8.41373 3.71007 7.91554C3.5286 7.66558 3.41764 7.45835 3.36688 7.29646C3.31581 7.1336 3.3362 7.05379 3.3575 7.01686C3.37745 6.98233 3.42962 6.93016 3.57289 6.89278C3.71659 6.8553 3.92171 6.84157 4.19268 6.86205C4.7331 6.90288 5.47091 7.07421 6.36008 7.36959C8.134 7.95886 10.4548 9.02299 12.8936 10.4311Z" fill="url(#paint6_linear_249_4338)"/>
<path fill-rule="evenodd" clip-rule="evenodd" d="M12.1984 9.81859C14.0878 8.79121 15.8632 7.99061 17.3138 7.48089L17.1273 6.9502C15.6421 7.47208 13.839 8.28627 11.9297 9.32441L12.1984 9.81859Z" fill="url(#paint7_linear_249_4338)"/>
<path fill-rule="evenodd" clip-rule="evenodd" d="M4.88588 14.8337C6.08042 13.7209 7.88239 12.3851 10.0342 11.0687L9.74068 10.5889C7.5681 11.918 5.73289 13.2759 4.50245 14.4221C3.88892 14.9937 3.41438 15.5231 3.12533 15.9785C2.98102 16.2059 2.87443 16.4279 2.82561 16.6373C2.77644 16.8483 2.78129 17.0696 2.89379 17.2645C3.08401 17.594 3.4858 17.6962 3.88923 17.7087C4.31356 17.7218 4.85359 17.6403 5.47349 17.4847C6.71755 17.1724 8.34786 16.5445 10.1513 15.6733L9.90667 15.1668C8.12197 16.0289 6.52967 16.6396 5.33654 16.9391C4.73785 17.0894 4.25563 17.1572 3.90657 17.1465C3.53666 17.1351 3.41391 17.0404 3.38094 16.9832C3.36238 16.9511 3.34473 16.8881 3.37344 16.765C3.40248 16.6404 3.47413 16.4786 3.60024 16.28C3.85199 15.8833 4.28689 15.3917 4.88588 14.8337Z" fill="url(#paint8_linear_249_4338)"/>
<path fill-rule="evenodd" clip-rule="evenodd" d="M12.9176 13.5683C11.8826 14.1658 10.8682 14.7019 9.90723 15.1661L10.1519 15.6725C11.1257 15.2021 12.1524 14.6596 13.1989 14.0554C15.661 12.6339 17.7763 11.1347 19.2094 9.86129C19.9241 9.22614 20.4803 8.63746 20.8235 8.1347C20.9947 7.88399 21.1223 7.64122 21.1846 7.4146C21.247 7.18759 21.2514 6.94649 21.1296 6.73562C21.0005 6.51198 20.7715 6.3943 20.5269 6.33817C20.2815 6.28185 19.9837 6.27791 19.6525 6.31105C18.9882 6.37752 18.123 6.60055 17.128 6.95019L17.3144 7.48086C18.2916 7.13753 19.1086 6.93078 19.7085 6.87076C20.0095 6.84064 20.2393 6.84929 20.4011 6.88642C20.5636 6.92373 20.6214 6.98035 20.6425 7.01687C20.6624 7.05139 20.6815 7.12267 20.6422 7.26542C20.6028 7.40863 20.5122 7.5931 20.3589 7.81754C20.0534 8.26513 19.5361 8.81844 18.8357 9.4408C17.4384 10.6824 15.3565 12.1602 12.9176 13.5683Z" fill="url(#paint9_linear_249_4338)"/>
<path d="M10.5463 19.5897C10.9521 19.5897 11.2811 19.2607 11.2811 18.8549C11.2811 18.4491 10.9521 18.1201 10.5463 18.1201C10.1405 18.1201 9.81152 18.4491 9.81152 18.8549C9.81152 19.2607 10.1405 19.5897 10.5463 19.5897Z" fill="white"/>
<path d="M4.68847 9.46385C4.89137 9.11241 5.34075 8.992 5.69219 9.1949C6.04363 9.3978 6.16404 9.84719 5.96114 10.1986C5.75824 10.5501 5.30885 10.6705 4.95741 10.4676C4.60598 10.2647 4.48556 9.81529 4.68847 9.46385Z" fill="white"/>
<path d="M17.8578 6.94648C18.0607 7.29792 17.9403 7.7473 17.5889 7.9502C17.2374 8.15311 16.7881 8.0327 16.5852 7.68126C16.3823 7.32982 16.5027 6.88044 16.8541 6.67753C17.2055 6.47463 17.6549 6.59504 17.8578 6.94648Z" fill="white"/>
<path fill-rule="evenodd" clip-rule="evenodd" d="M11.9999 10.7207C12.7064 10.7207 13.2791 11.2934 13.2791 11.9999C13.2791 12.7064 12.7064 13.2791 11.9999 13.2791C11.2934 13.2791 10.7207 12.7064 10.7207 11.9999C10.7207 11.2934 11.2934 10.7207 11.9999 10.7207Z" fill="white"/>
</g>
<defs>
<radialGradient id="paint0_radial_249_4338" cx="0" cy="0" r="1" gradientUnits="userSpaceOnUse" gradientTransform="translate(12 12) rotate(90) scale(12)">
<stop offset="0.0909055" stop-color="#7C7C7C"/>
<stop offset="0.233848" stop-color="#3E3E3E"/>
<stop offset="0.817221"/>
</radialGradient>
<linearGradient id="paint1_linear_249_4338" x1="12.27" y1="22.5278" x2="14.9876" y2="13.378" gradientUnits="userSpaceOnUse">
<stop offset="0.377307" stop-color="white" stop-opacity="0.6"/>
<stop offset="0.992239" stop-color="white" stop-opacity="0"/>
</linearGradient>
<linearGradient id="paint2_linear_249_4338" x1="12.0558" y1="1.47168" x2="15.5612" y2="10.3357" gradientUnits="userSpaceOnUse">
<stop offset="0.634963" stop-color="white" stop-opacity="0.81"/>
<stop offset="1" stop-color="white" stop-opacity="0"/>
</linearGradient>
<linearGradient id="paint3_linear_249_4338" x1="10.7224" y1="8.52051" x2="10.7224" y2="18.9435" gradientUnits="userSpaceOnUse">
<stop stop-color="white" stop-opacity="0.81"/>
<stop offset="0.646422" stop-color="white"/>
</linearGradient>
<linearGradient id="paint4_linear_249_4338" x1="5.49348" y1="9.64112" x2="10.09" y2="12.8835" gradientUnits="userSpaceOnUse">
<stop stop-color="white" stop-opacity="0.6"/>
<stop offset="1" stop-color="white" stop-opacity="0"/>
</linearGradient>
<linearGradient id="paint5_linear_249_4338" x1="21.6421" y1="17.227" x2="11.4502" y2="15.5309" gradientUnits="userSpaceOnUse">
<stop offset="0.60731" stop-color="white" stop-opacity="0.81"/>
<stop offset="1" stop-color="white" stop-opacity="0"/>
</linearGradient>
<linearGradient id="paint6_linear_249_4338" x1="15.8111" y1="11.667" x2="2.58078" y2="6.76136" gradientUnits="userSpaceOnUse">
<stop stop-color="white" stop-opacity="0.81"/>
<stop offset="0.478389" stop-color="white"/>
</linearGradient>
<linearGradient id="paint7_linear_249_4338" x1="17.419" y1="7.52027" x2="11.907" y2="10.0814" gradientUnits="userSpaceOnUse">
<stop stop-color="white" stop-opacity="0.6"/>
<stop offset="1" stop-color="white" stop-opacity="0"/>
</linearGradient>
<linearGradient id="paint8_linear_249_4338" x1="2.58772" y1="17.3019" x2="9.48767" y2="10.1062" gradientUnits="userSpaceOnUse">
<stop offset="0.54518" stop-color="white" stop-opacity="0.81"/>
<stop offset="1" stop-color="white" stop-opacity="0"/>
</linearGradient>
<linearGradient id="paint9_linear_249_4338" x1="21.413" y1="6.47499" x2="10.2721" y2="15.7414" gradientUnits="userSpaceOnUse">
<stop offset="0.518582" stop-color="white"/>
<stop offset="1" stop-color="white" stop-opacity="0.81"/>
</linearGradient>
<clipPath id="clip0_249_4338">
<rect width="24" height="24" fill="white"/>
</clipPath>
</defs>
</svg>
