<svg width="24" height="24" viewBox="0 0 24 24" fill="none" xmlns="http://www.w3.org/2000/svg">
<g clip-path="url(#clip0_248_4253)">
<path fill-rule="evenodd" clip-rule="evenodd" d="M20.6803 3.57031C20.3284 3.57242 19.9757 3.62988 19.6334 3.74385C19.6299 3.74499 19.6266 3.74595 19.623 3.74729L16.4473 4.81473C14.2569 3.52913 11.6298 3.25217 9.21663 4.0549C9.20799 4.05777 9.19894 4.06103 9.19029 4.06371C5.86657 5.18114 3.53714 8.23692 3.39364 11.6678C3.38682 11.8302 3.545 11.949 3.69911 11.8972L5.45363 11.3075C5.53549 11.28 5.59494 11.2088 5.60749 11.1234C5.95188 8.76748 7.59429 6.82396 9.89405 6.05072C9.90091 6.04862 9.90702 6.04652 9.91371 6.04422C12.081 5.32318 14.408 5.79474 16.0909 7.13402C16.0989 7.14036 16.1096 7.14227 16.1192 7.13903L20.3266 5.7343L20.3302 5.73315C20.9252 5.5353 21.5748 5.84462 21.7801 6.42383C21.9854 7.0042 21.6682 7.63915 21.073 7.83967L21.0742 7.84313L2.22498 14.1723C1.39308 14.4521 0.721962 15.0317 0.33549 15.805C-0.0507826 16.578 -0.105431 17.4503 0.181571 18.2611C0.468573 19.0718 1.06361 19.7257 1.857 20.1021C2.65037 20.4787 3.54303 20.5334 4.3779 20.2523L7.55359 19.1846C9.74406 20.4704 12.3707 20.7476 14.7839 19.9447C14.7925 19.9416 14.8016 19.9385 14.8102 19.9359C18.1343 18.8184 20.4639 15.7624 20.6073 12.3316C20.614 12.1692 20.4559 12.0503 20.3018 12.1022L18.5473 12.6921C18.4654 12.7196 18.406 12.7907 18.3934 12.8762C18.0488 15.2319 16.4064 17.1756 14.1067 17.9485C14.1 17.9508 14.0937 17.9531 14.0872 17.9554C11.9203 18.6758 9.59445 18.205 7.91177 16.8669C7.9038 16.8605 7.89314 16.8586 7.88348 16.8619L3.67414 18.2651C3.67414 18.2651 3.67198 18.2658 3.67061 18.2662C3.07577 18.4641 2.42588 18.1549 2.22085 17.5757C2.01525 16.9952 2.33272 16.3598 2.92873 16.1593L21.7759 9.82727C23.1386 9.36911 23.9968 8.12297 24 6.79121V6.77971C23.9994 6.43399 23.9413 6.08289 23.8193 5.73833C23.5321 4.92755 22.9371 4.27364 22.1437 3.89727C21.6908 3.68236 21.2049 3.5728 20.7166 3.57031H20.6803Z" fill="url(#paint0_linear_248_4253)"/>
</g>
<defs>
<linearGradient id="paint0_linear_248_4253" x1="21.4011" y1="3.57031" x2="2.94605" y2="18.614" gradientUnits="userSpaceOnUse">
<stop stop-color="#B453DF"/>
<stop offset="1" stop-color="#761FC5"/>
</linearGradient>
<clipPath id="clip0_248_4253">
<rect width="24" height="16.8595" fill="white" transform="translate(0 3.57031)"/>
</clipPath>
</defs>
</svg>
