<svg width="24" height="24" viewBox="0 0 24 24" fill="none" xmlns="http://www.w3.org/2000/svg">
<g clip-path="url(#clip0_249_4319)">
<path d="M24 17.413C11.4526 19.0528 2.49688 21.0224 2.3644 12.9381C2.3644 12.9381 2.6382 9.80566 6.48014 9.60841C6.48014 9.60841 6.60968 6.82631 9.54487 6.5113C11.1229 6.34055 12.9158 7.96564 13.1101 9.67612C13.1101 9.67612 16.9932 8.95778 17.161 12.7438C17.2199 14.0627 16.9226 16.3061 13.1778 16.2089C13.1778 16.2089 11.011 15.9145 10.7166 12.5642C10.1072 19.0499 19.4839 18.673 19.6193 12.7821C19.6782 10.2355 18.0472 7.61531 14.3731 8.10696C12.3593 3.0403 6.99829 3.33176 5.00224 8.03041C2.14949 8.03041 -0.0320283 10.2267 0.000355885 13.0941C0.109285 22.3236 12.954 19.5415 24 17.413Z" fill="#24339B"/>
</g>
<defs>
<clipPath id="clip0_249_4319">
<rect width="24" height="15.1875" fill="white" transform="translate(0 4.40625)"/>
</clipPath>
</defs>
</svg>
