<svg width="20" height="20" viewBox="0 0 20 20" fill="none" xmlns="http://www.w3.org/2000/svg">
<path d="M3.43201 0.833252H16.3318V3.3167H20L19.2313 5.80076H18.5803V15.8498C18.9067 15.8498 19.1718 16.1021 19.1718 16.4138V17.0912H19.2902C19.6172 17.0912 19.8822 17.3441 19.8822 17.6558V18.3333H13.2544V17.6558C13.2544 17.3441 13.5194 17.0912 13.8464 17.0912H13.9649V16.4138C13.9649 16.1427 14.1653 15.9165 14.4322 15.8619L14.4197 10.3171C14.2104 8.10167 12.2589 6.36538 9.8819 6.36538C7.50493 6.36538 5.55336 8.10167 5.34411 10.3171L5.33158 15.8571C5.64734 15.902 6.03577 16.1342 6.03577 16.4138V17.0912H6.15418C6.48059 17.0912 6.74561 17.3441 6.74561 17.6558V18.3333H0.11841V17.6558C0.11841 17.3441 0.383423 17.0912 0.709833 17.0912H0.828243V16.4138C0.828243 16.1021 1.09326 15.8498 1.42029 15.8498V5.80076H0.769351L0 3.3167H3.43201V0.833252Z" fill="#8A63D2"/>
</svg>
