<svg width="24" height="24" viewBox="0 0 24 24" fill="none" xmlns="http://www.w3.org/2000/svg">
<path d="M21.6183 14.9651C21.6183 18.3987 17.4278 19.794 12.2249 19.794C7.02195 19.794 2.77054 18.3987 2.77054 14.9651C2.77054 11.5315 6.99143 8.75316 12.1944 8.75316C17.3973 8.75316 21.6183 11.5376 21.6183 14.9651Z" fill="#24A95A"/>
<path d="M20.6613 7.48091C20.6613 5.67312 19.1853 4.20508 17.3676 4.20508C16.4224 4.20508 15.5705 4.60252 14.9701 5.23553C14.8771 5.33359 14.7412 5.38137 14.6088 5.35462C13.8482 5.20104 13.0435 5.11503 12.2135 5.11503C11.3835 5.11503 10.5789 5.19597 9.81838 5.35325C9.68578 5.38067 9.54929 5.33368 9.45572 5.23579C8.85053 4.60263 7.99905 4.20508 7.05932 4.20508C5.24163 4.20508 3.76555 5.67312 3.76555 7.48091C3.76555 8.00816 3.89028 8.50202 4.10998 8.94131C4.16259 9.04651 4.16789 9.16969 4.12237 9.27813C3.90923 9.78601 3.79604 10.3222 3.79604 10.8781C3.79604 14.0629 7.56557 16.641 12.2135 16.641C16.8614 16.641 20.6309 14.0629 20.6309 10.8781C20.6309 10.3222 20.5177 9.78601 20.3045 9.27813C20.259 9.16969 20.2644 9.04651 20.317 8.94131C20.5367 8.50202 20.6613 8.00816 20.6613 7.48091Z" fill="#32DA6D"/>
<path d="M6.79017 9.29805C7.90184 9.29805 8.80304 8.40176 8.80304 7.29615C8.80304 6.19053 7.90184 5.29426 6.79017 5.29426C5.67849 5.29426 4.77731 6.19053 4.77731 7.29615C4.77731 8.40176 5.67849 9.29805 6.79017 9.29805Z" fill="white"/>
<path d="M17.5288 9.29805C18.6404 9.29805 19.5416 8.40176 19.5416 7.29615C19.5416 6.19053 18.6404 5.29426 17.5288 5.29426C16.4171 5.29426 15.516 6.19053 15.516 7.29615C15.516 8.40176 16.4171 9.29805 17.5288 9.29805Z" fill="white"/>
<path d="M5.72214 19.5468C6.15521 19.5468 6.49679 19.1707 6.448 18.7461C6.27111 17.2415 5.52085 13.9839 2.22099 12.0245C-1.39637 9.8759 0.324623 15.5883 1.04397 17.6696C1.18948 18.0905 1.02074 18.558 0.634458 18.7796L0.39721 18.9159C0.0922373 19.0918 0.220325 19.5468 0.568 19.5468H5.72214Z" fill="#32DA6D"/>
<path d="M18.8315 19.5468C18.4411 19.5468 18.1362 19.1707 18.1789 18.7461C18.3314 17.2476 19.0145 13.9839 21.9911 12.0245C25.2871 9.85922 23.6829 15.6774 23.0425 17.7174C22.9169 18.1175 23.0715 18.553 23.4257 18.7775L23.6442 18.9159C23.9185 19.0918 23.8027 19.5468 23.4917 19.5468H18.8315Z" fill="#32DA6D"/>
<path d="M6.79314 8.49345C7.45632 8.49345 7.99393 7.95584 7.99393 7.29266C7.99393 6.62949 7.45632 6.09187 6.79314 6.09187C6.12997 6.09187 5.59235 6.62949 5.59235 7.29266C5.59235 7.95584 6.12997 8.49345 6.79314 8.49345Z" fill="#092511"/>
<path d="M17.5315 8.49345C18.1947 8.49345 18.7321 7.95584 18.7321 7.29266C18.7321 6.62949 18.1947 6.09187 17.5315 6.09187C16.8683 6.09187 16.3307 6.62949 16.3307 7.29266C16.3307 7.95584 16.8683 8.49345 17.5315 8.49345Z" fill="#092511"/>
<path d="M14.8779 11.9386C15.1757 11.9642 15.4007 12.2284 15.3257 12.5176C15.2651 12.7514 15.1783 12.9782 15.0666 13.1935C14.8716 13.5695 14.6044 13.9033 14.2804 14.176C13.9564 14.4487 13.5818 14.6549 13.1781 14.7828C12.7744 14.9108 12.3494 14.958 11.9274 14.9217C11.5055 14.8854 11.0948 14.7663 10.7189 14.5713C10.343 14.3763 10.0091 14.1091 9.73639 13.7851C9.4637 13.4611 9.2575 13.0865 9.12955 12.6828C9.03802 12.3939 8.98783 12.0942 8.97998 11.7925C8.97479 11.5933 9.15164 11.446 9.35011 11.463L14.8779 11.9386Z" fill="#092511"/>
</svg>
