<svg width="24" height="24" viewBox="0 0 24 24" fill="none" xmlns="http://www.w3.org/2000/svg">
<g clip-path="url(#clip0_235_4252)">
<path d="M15.716 14.4167H22.1659V15.6585H24L23.6156 16.9005H23.2902V21.925C23.4534 21.925 23.5859 22.0512 23.5859 22.207V22.5457H23.6451C23.8086 22.5457 23.9411 22.6722 23.9411 22.828V23.1667H20.6272V22.828C20.6272 22.6722 20.7597 22.5457 20.9232 22.5457H20.9824V22.207C20.9824 22.0715 21.0827 21.9584 21.2161 21.9311L21.2098 19.1587C21.1052 18.051 20.1294 17.1828 18.941 17.1828C17.7525 17.1828 16.7767 18.051 16.6721 19.1587L16.6658 21.9287C16.8237 21.9511 17.0179 22.0672 17.0179 22.207V22.5457H17.0771C17.2403 22.5457 17.3728 22.6722 17.3728 22.828V23.1667H14.0592V22.828C14.0592 22.6722 14.1917 22.5457 14.3549 22.5457H14.4141V22.207C14.4141 22.0512 14.5466 21.925 14.7101 21.925V16.9005H14.3847L14 15.6585H15.716V14.4167Z" fill="#8A63D2"/>
</g>
<path d="M4.11986 18.1951C3.83486 18.1951 3.60986 18.4451 3.60986 18.7501C3.60986 19.0551 3.83986 19.3051 4.11986 19.3051C4.40486 19.3051 4.62986 19.0551 4.62986 18.7501C4.63486 18.4451 4.40486 18.1951 4.11986 18.1951ZM5.94486 18.1951C5.65986 18.1951 5.43486 18.4451 5.43486 18.7501C5.43486 19.0551 5.66486 19.3051 5.94486 19.3051C6.22986 19.3051 6.45486 19.0551 6.45486 18.7501C6.45486 18.4451 6.22986 18.1951 5.94486 18.1951Z" fill="#7289DA"/>
<path d="M8.3749 14H1.6749C1.1099 14 0.649902 14.46 0.649902 15.03V21.79C0.649902 22.36 1.1099 22.82 1.6749 22.82H7.3449L7.0799 21.895L7.7199 22.49L8.3249 23.05L9.3999 24V15.03C9.3999 14.46 8.9399 14 8.3749 14ZM6.4449 20.53C6.4449 20.53 6.2649 20.315 6.1149 20.125C6.7699 19.94 7.0199 19.53 7.0199 19.53C6.8149 19.665 6.6199 19.76 6.4449 19.825C6.1949 19.93 5.9549 20 5.7199 20.04C5.2399 20.13 4.7999 20.105 4.4249 20.035C4.1399 19.98 3.8949 19.9 3.6899 19.82C3.5749 19.775 3.4499 19.72 3.3249 19.65C3.3099 19.64 3.2949 19.635 3.2799 19.625C3.2699 19.62 3.2649 19.615 3.2599 19.61C3.1699 19.56 3.1199 19.525 3.1199 19.525C3.1199 19.525 3.3599 19.925 3.9949 20.115C3.8449 20.305 3.6599 20.53 3.6599 20.53C2.5549 20.495 2.1349 19.77 2.1349 19.77C2.1349 18.16 2.8549 16.855 2.8549 16.855C3.5749 16.315 4.2599 16.33 4.2599 16.33L4.3099 16.39C3.4099 16.65 2.9949 17.045 2.9949 17.045C2.9949 17.045 3.1049 16.985 3.2899 16.9C3.8249 16.665 4.2499 16.6 4.4249 16.585C4.4549 16.58 4.4799 16.575 4.5099 16.575C4.8149 16.535 5.1599 16.525 5.5199 16.565C5.9949 16.62 6.5049 16.76 7.0249 17.045C7.0249 17.045 6.6299 16.67 5.7799 16.41L5.8499 16.33C5.8499 16.33 6.5349 16.315 7.2549 16.855C7.2549 16.855 7.9749 18.16 7.9749 19.77C7.9749 19.77 7.5499 20.495 6.4449 20.53V20.53Z" fill="#7289DA"/>
<g clip-path="url(#clip1_235_4252)">
<path fill-rule="evenodd" clip-rule="evenodd" d="M20.6439 9.58341L18.3317 6.28762L15.437 9.58341H14.2124L17.7884 5.51304L14.2124 0.416748H17.3565L19.5358 3.52301L22.2664 0.416748H23.491L20.081 4.29862L23.7881 9.58341H20.6439ZM22.0077 8.65426H21.1832L15.9659 1.34591H16.7905L18.88 4.27223L19.2414 4.78002L22.0077 8.65426Z" fill="black"/>
</g>
<g clip-path="url(#clip2_235_4252)">
<path d="M9.90261 5.1151C9.90261 4.77522 9.87505 4.4335 9.81626 4.09912H5.1001V6.02453H7.80082C7.68875 6.64551 7.32865 7.19484 6.80137 7.54391V8.79322H8.41262C9.35879 7.92238 9.90261 6.63632 9.90261 5.1151Z" fill="#4285F4"/>
<path d="M5.09996 10.0004C6.44848 10.0004 7.58572 9.55761 8.41431 8.79333L6.80307 7.54402C6.35478 7.849 5.77606 8.0217 5.1018 8.0217C3.79737 8.0217 2.69136 7.14167 2.29452 5.9585H0.631836V7.24639C1.48063 8.9348 3.20946 10.0004 5.09996 10.0004V10.0004Z" fill="#34A853"/>
<path d="M2.29282 5.95838C2.08338 5.3374 2.08338 4.66498 2.29282 4.044V2.7561H0.631973C-0.0771943 4.16893 -0.0771943 5.83345 0.631973 7.24627L2.29282 5.95838V5.95838Z" fill="#FBBC04"/>
<path d="M5.09996 1.97902C5.8128 1.968 6.50176 2.23624 7.01802 2.72861L8.44554 1.30109C7.54163 0.452294 6.34192 -0.0143608 5.09996 0.000336944C3.20946 0.000336944 1.48063 1.06593 0.631836 2.75617L2.29268 4.04406C2.68769 2.85905 3.79553 1.97902 5.09996 1.97902V1.97902Z" fill="#EA4335"/>
</g>
<defs>
<clipPath id="clip0_235_4252">
<rect width="10" height="10" fill="white" transform="translate(14 14)"/>
</clipPath>
<clipPath id="clip1_235_4252">
<rect width="10" height="10" fill="white" transform="translate(14)"/>
</clipPath>
<clipPath id="clip2_235_4252">
<rect width="10" height="10" fill="white"/>
</clipPath>
</defs>
</svg>
