<svg width="24" height="24" viewBox="0 0 24 24" fill="none" xmlns="http://www.w3.org/2000/svg">
<path d="M3.90033 17.0042C4.04719 16.856 4.24629 16.7727 4.45388 16.7727H23.6077C23.9566 16.7727 24.1312 17.199 23.8844 17.4481L20.0997 21.2685C19.9528 21.4167 19.7537 21.5 19.5461 21.5H0.392339C0.0434445 21.5 -0.131233 21.0738 0.11556 20.8246L3.90033 17.0042Z" fill="url(#paint0_linear_252_64)"/>
<path d="M3.90033 2.73152C4.04717 2.58327 4.24628 2.49999 4.45388 2.5H23.6077C23.9566 2.5 24.1312 2.92624 23.8844 3.17542L20.0997 6.9958C19.9528 7.14401 19.7537 7.22727 19.5461 7.22727H0.392339C0.0434445 7.22727 -0.131233 6.80103 0.11556 6.5519L3.90033 2.73152Z" fill="url(#paint1_linear_252_64)"/>
<path d="M20.0997 9.8224C19.9528 9.67418 19.7537 9.59093 19.5461 9.59093H0.392339C0.0434445 9.59093 -0.131233 10.0172 0.11556 10.2663L3.90033 14.0867C4.04717 14.2349 4.24628 14.3182 4.45388 14.3182H23.6077C23.9566 14.3182 24.1312 13.892 23.8844 13.6428L20.0997 9.8224Z" fill="url(#paint2_linear_252_64)"/>
<defs>
<linearGradient id="paint0_linear_252_64" x1="16.2254" y1="-2.71177" x2="2.7563" y2="22.826" gradientUnits="userSpaceOnUse">
<stop stop-color="#00FFA3"/>
<stop offset="1" stop-color="#DC1FFF"/>
</linearGradient>
<linearGradient id="paint1_linear_252_64" x1="16.2254" y1="-2.71177" x2="2.7563" y2="22.826" gradientUnits="userSpaceOnUse">
<stop stop-color="#00FFA3"/>
<stop offset="1" stop-color="#DC1FFF"/>
</linearGradient>
<linearGradient id="paint2_linear_252_64" x1="16.2254" y1="-2.71177" x2="2.7563" y2="22.826" gradientUnits="userSpaceOnUse">
<stop stop-color="#00FFA3"/>
<stop offset="1" stop-color="#DC1FFF"/>
</linearGradient>
</defs>
</svg>
