<svg width="24" height="24" viewBox="0 0 24 24" fill="none" xmlns="http://www.w3.org/2000/svg">
<g clip-path="url(#clip0_252_48)">
<mask id="mask0_252_48" style="mask-type:luminance" maskUnits="userSpaceOnUse" x="0" y="7" width="24" height="10">
<path d="M24 7.62891H0V16.3704H24V7.62891Z" fill="white"/>
</mask>
<g mask="url(#mask0_252_48)">
<path d="M3.25097 16.2298L5.29428 11.4134C5.57292 10.7367 5.67906 10.6703 6.2496 10.6703V10.3917H4.17975V10.6703C4.71048 10.6703 4.96258 10.6969 4.96258 10.9755C4.96258 11.0817 4.93604 11.2143 4.85643 11.4134L3.67555 14.3589L2.4018 11.3736C2.33545 11.1878 2.29565 11.0551 2.29565 10.9622C2.29565 10.6969 2.54775 10.6703 2.99887 10.6703V10.3917H0.0400391V10.6703C0.584039 10.6703 0.663649 10.7765 0.929015 11.3603L3.17136 16.2298H3.25097ZM6.70911 8.50761C6.70911 8.95873 7.09389 9.31697 7.54501 9.31697C7.99614 9.31697 8.36765 8.95873 8.36765 8.50761C8.36765 8.04322 7.99614 7.69824 7.54501 7.69824C7.09389 7.69824 6.70911 8.04322 6.70911 8.50761ZM6.86833 11.3868V15.102C6.86833 15.7521 6.73565 15.8184 6.13858 15.8184V16.0971H9.01779V15.8184C8.42072 15.8184 8.28804 15.7521 8.28804 15.102V10.3917H6.13858V10.6703C6.73565 10.6703 6.86833 10.7367 6.86833 11.3868ZM11.6335 10.6173C12.3367 10.6173 12.6684 11.294 12.7083 12.236H10.3332C10.4394 11.1745 10.9436 10.6173 11.6335 10.6173ZM14.0218 14.956L13.8493 14.7968C13.4911 15.2744 13.0532 15.4867 12.496 15.4867C11.2089 15.4867 10.3067 14.3191 10.3067 12.7137C10.3067 12.6606 10.3067 12.6075 10.3067 12.5677H13.9289C13.9289 11.4664 13.1992 10.259 11.6733 10.259C10.2934 10.259 8.9666 11.5726 8.9666 13.324C8.9666 15.0356 10.2536 16.2298 11.8193 16.2298C12.6684 16.2298 13.5044 15.7919 14.0218 14.956ZM16.942 15.8184C16.3449 15.8184 16.2122 15.7521 16.2122 15.102V11.7185C16.4378 11.294 16.8093 11.0153 17.2604 11.0153C17.9504 11.0153 18.2953 11.4664 18.2953 12.4218V15.102C18.2953 15.7521 18.1627 15.8184 17.5656 15.8184V16.0971H20.4448V15.8184C19.8345 15.8184 19.7018 15.7521 19.7018 15.102V12.1962C19.7018 12.0635 19.6885 11.9176 19.6752 11.7981C19.861 11.3736 20.259 11.0153 20.75 11.0153C21.4532 11.0153 21.7982 11.4664 21.7982 12.4218V15.102C21.7982 15.7521 21.6655 15.8184 21.0684 15.8184V16.0971H23.9476V15.8184C23.3373 15.8184 23.2046 15.7521 23.2046 15.102V12.1962C23.2046 11.1347 22.7004 10.259 21.493 10.259C20.5244 10.259 19.8743 11.002 19.6354 11.546C19.4497 10.803 18.9455 10.259 17.9902 10.259C17.1012 10.259 16.4776 10.8959 16.2122 11.4266V10.3917H14.0628V10.6703C14.6598 10.6703 14.7925 10.7367 14.7925 11.3868V15.102C14.7925 15.7521 14.6598 15.8184 14.0628 15.8184V16.0971H16.942V15.8184Z" fill="#F1F1F1"/>
</g>
</g>
<defs>
<clipPath id="clip0_252_48">
<rect width="24" height="8.74146" fill="white" transform="translate(0 7.62891)"/>
</clipPath>
</defs>
</svg>
