<svg width="24" height="24" viewBox="0 0 24 24" fill="none" xmlns="http://www.w3.org/2000/svg">
<g clip-path="url(#clip0_248_4300)">
<path d="M24.0004 9.69013C24.0004 9.97365 23.7705 10.2035 23.487 10.2035C23.2035 10.2035 22.9736 9.97365 22.9736 9.69013C22.9736 9.4066 23.2035 9.17676 23.487 9.17676C23.7705 9.17676 24.0004 9.4066 24.0004 9.69013Z" fill="#F9F9F9"/>
<path d="M17.7112 13.6691C17.9239 13.6691 18.0962 13.4967 18.0962 13.2841V11.7439C18.0962 11.5313 18.2686 11.3589 18.4813 11.3589H19.2513C19.464 11.3589 19.6363 11.5313 19.6363 11.7439V13.2841C19.6363 13.4967 19.8087 13.6691 20.0214 13.6691C20.234 13.6691 20.4064 13.4967 20.4064 13.2841V11.7439C20.4064 11.5313 20.5787 11.3589 20.7914 11.3589H21.5615C21.7741 11.3589 21.9465 11.5313 21.9465 11.7439V13.2841C21.9465 13.4967 22.1189 13.6691 22.3315 13.6691H23.4866C23.6993 13.6691 23.8716 13.4967 23.8716 13.2841V10.9739C23.8716 10.7612 23.6993 10.5889 23.4866 10.5889C23.2739 10.5889 23.1016 10.7612 23.1016 10.9739V12.7065C23.1016 12.8128 23.0154 12.899 22.9091 12.899C22.8027 12.899 22.7165 12.8128 22.7165 12.7065V10.9739C22.7165 10.7612 22.5442 10.5889 22.3315 10.5889H17.7112C17.4985 10.5889 17.3262 10.7612 17.3262 10.9739V13.2841C17.3262 13.4967 17.4985 13.6691 17.7112 13.6691Z" fill="#F9F9F9"/>
<path fill-rule="evenodd" clip-rule="evenodd" d="M1.15508 12.899C0.942434 12.899 0.770053 12.7266 0.770053 12.514V10.9739C0.770053 10.7612 0.597673 10.5889 0.385027 10.5889C0.172382 10.5889 0 10.7612 0 10.9739V13.2841C0 13.4967 0.172382 13.6691 0.385027 13.6691H5.00535C5.21801 13.6691 5.39037 13.4967 5.39037 13.2841V11.7439C5.39037 11.5313 5.56274 11.3589 5.7754 11.3589H10.2032C10.3095 11.3589 10.3957 11.4451 10.3957 11.5514C10.3957 11.6578 10.3095 11.7439 10.2032 11.7439H6.16043C5.94776 11.7439 5.7754 11.9163 5.7754 12.129V13.2841C5.7754 13.4967 5.94776 13.6691 6.16043 13.6691H10.7807C10.9934 13.6691 11.1658 13.4967 11.1658 13.2841V10.9739C11.1658 10.7612 10.9934 10.5889 10.7807 10.5889H5.00535C4.79268 10.5889 4.62032 10.7612 4.62032 10.9739V12.514C4.62032 12.7266 4.44796 12.899 4.23529 12.899H3.46524C3.25259 12.899 3.08021 12.7266 3.08021 12.514V10.9739C3.08021 10.7612 2.90783 10.5889 2.69519 10.5889C2.48254 10.5889 2.31016 10.7612 2.31016 10.9739V12.514C2.31016 12.7266 2.13778 12.899 1.92513 12.899H1.15508ZM10.3957 12.7065C10.3957 12.8128 10.3095 12.899 10.2032 12.899H6.73797C6.63166 12.899 6.54545 12.8128 6.54545 12.7065C6.54545 12.6002 6.63166 12.514 6.73797 12.514H10.2032C10.3095 12.514 10.3957 12.6002 10.3957 12.7065Z" fill="#F9F9F9"/>
<path fill-rule="evenodd" clip-rule="evenodd" d="M11.5508 13.2841C11.5508 13.4967 11.7231 13.6691 11.9358 13.6691H15.9786C16.0849 13.6691 16.1711 13.7553 16.1711 13.8616C16.1711 13.9679 16.0849 14.0541 15.9786 14.0541H11.9358C11.7231 14.0541 11.5508 14.2265 11.5508 14.4391C11.5508 14.6518 11.7231 14.8242 11.9358 14.8242H16.5561C16.7688 14.8242 16.9412 14.6518 16.9412 14.4391V10.9739C16.9412 10.7612 16.7688 10.5889 16.5561 10.5889H11.9358C11.7231 10.5889 11.5508 10.7612 11.5508 10.9739V13.2841ZM12.7059 11.3589C12.4932 11.3589 12.3208 11.5313 12.3208 11.7439V12.514C12.3208 12.7266 12.4932 12.899 12.7059 12.899H15.7861C15.9987 12.899 16.1711 12.7266 16.1711 12.514V11.7439C16.1711 11.5313 15.9987 11.3589 15.7861 11.3589H12.7059Z" fill="#F9F9F9"/>
</g>
<defs>
<clipPath id="clip0_248_4300">
<rect width="24" height="5.64706" fill="white" transform="translate(0 9.17676)"/>
</clipPath>
</defs>
</svg>
